<svg xmlns="http://www.w3.org/2000/svg" width="1920" height="1080" viewBox="0 0 1920 1080">
  <defs>
    <linearGradient id="bgGrad" x1="0" y1="0" x2="0" y2="1">
      <stop offset="0%" stop-color="#08080c"/>
      <stop offset="50%" stop-color="#060609"/>
      <stop offset="100%" stop-color="#050507"/>
    </linearGradient>
    <radialGradient id="amberGlow" cx="50%" cy="45%" r="55%">
      <stop offset="0%" stop-color="rgba(255,106,0,0.08)"/>
      <stop offset="50%" stop-color="rgba(255,106,0,0.02)"/>
      <stop offset="100%" stop-color="rgba(255,106,0,0)"/>
    </radialGradient>
    <filter id="scanGlow">
      <feGaussianBlur stdDeviation="1.5"/>
    </filter>
  </defs>
  <rect width="1920" height="1080" fill="url(#bgGrad)"/>
  <rect width="1920" height="1080" fill="url(#amberGlow)"/>
  <g opacity="0.03">
    <line x1="0" y1="0" x2="1920" y2="0" stroke="#ff6a00" stroke-width="0.3" transform="translate(0, 120)"/>
    <line x1="0" y1="0" x2="1920" y2="0" stroke="#ff6a00" stroke-width="0.3" transform="translate(0, 240)"/>
    <line x1="0" y1="0" x2="1920" y2="0" stroke="#ff6a00" stroke-width="0.3" transform="translate(0, 360)"/>
    <line x1="0" y1="0" x2="1920" y2="0" stroke="#ff6a00" stroke-width="0.3" transform="translate(0, 480)"/>
    <line x1="0" y1="0" x2="1920" y2="0" stroke="#ff6a00" stroke-width="0.3" transform="translate(0, 600)"/>
    <line x1="0" y1="0" x2="1920" y2="0" stroke="#ff6a00" stroke-width="0.3" transform="translate(0, 720)"/>
    <line x1="0" y1="0" x2="1920" y2="0" stroke="#ff6a00" stroke-width="0.3" transform="translate(0, 840)"/>
    <line x1="0" y1="0" x2="1920" y2="0" stroke="#ff6a00" stroke-width="0.3" transform="translate(0, 960)"/>
    <line x1="0" y1="0" x2="0" y2="1080" stroke="#ff6a00" stroke-width="0.3" transform="translate(240, 0)"/>
    <line x1="0" y1="0" x2="0" y2="1080" stroke="#ff6a00" stroke-width="0.3" transform="translate(480, 0)"/>
    <line x1="0" y1="0" x2="0" y2="1080" stroke="#ff6a00" stroke-width="0.3" transform="translate(720, 0)"/>
    <line x1="0" y1="0" x2="0" y2="1080" stroke="#ff6a00" stroke-width="0.3" transform="translate(960, 0)"/>
    <line x1="0" y1="0" x2="0" y2="1080" stroke="#ff6a00" stroke-width="0.3" transform="translate(1200, 0)"/>
    <line x1="0" y1="0" x2="0" y2="1080" stroke="#ff6a00" stroke-width="0.3" transform="translate(1440, 0)"/>
    <line x1="0" y1="0" x2="0" y2="1080" stroke="#ff6a00" stroke-width="0.3" transform="translate(1680, 0)"/>
  </g>
  <g opacity="0.04">
    <line x1="200" y1="1080" x2="500" y2="0" stroke="#ff6a00" stroke-width="40"/>
    <line x1="700" y1="1080" x2="1100" y2="0" stroke="#ff6a00" stroke-width="30"/>
    <line x1="1300" y1="1080" x2="1600" y2="0" stroke="#ff6a00" stroke-width="35"/>
  </g>
  <g opacity="0.12" filter="url(#scanGlow)">
    <rect x="160" y="200" width="1.5" height="40" fill="#ff6a00"/>
    <rect x="1720" y="400" width="1.5" height="30" fill="#ff6a00"/>
    <rect x="80" y="750" width="1" height="25" fill="#ff6a00"/>
    <rect x="1840" y="600" width="1.5" height="35" fill="#ff6a00"/>
  </g>
  <g opacity="0.06">
    <circle cx="960" cy="540" r="240" fill="none" stroke="#ff6a00" stroke-width="0.4"/>
    <circle cx="960" cy="540" r="160" fill="none" stroke="#ff6a00" stroke-width="0.3"/>
    <circle cx="960" cy="540" r="320" fill="none" stroke="#ff6a00" stroke-width="0.2" stroke-dasharray="4 8"/>
    <circle cx="960" cy="540" r="80" fill="none" stroke="#ff6a00" stroke-width="0.2"/>
  </g>
  <g opacity="0.03">
    <path d="M0 800 Q240 740 480 780 Q720 820 960 770 Q1200 720 1440 760 Q1680 800 1920 770" fill="none" stroke="#ff6a00" stroke-width="0.5"/>
  </g>
</svg>
